<svg xmlns="http://www.w3.org/2000/svg" width="776" height="152" viewBox="125 68 776 152" fill="none" role="img" aria-labelledby="title desc">
  <title id="title">Farming Labs logo and wordmark for dark backgrounds</title>
  <desc id="desc">The Farming Labs logo paired with its custom monospaced wordmark and triangular A letters.</desc>
  <path d="M364 172.837V128.009H396.458V133.188H370.344V148.34H395.129V153.516H370.344V172.837H364Z" fill="#F5F5F4" stroke="#F5F5F4" stroke-width="0.84" stroke-miterlimit="2"/>
  <path d="M418.527 128.009H430.398L445.612 172.837H428.831V166.612H435.239L424.462 138.556L413.686 166.612H420.094V172.837H403.312L418.527 128.009Z" fill="#F5F5F4"/>
  <path d="M453.203 172.837V128.009H469.137C474.644 128.009 478.997 129.2 482.194 131.577C485.39 133.955 486.989 137.226 486.989 141.396C486.989 144.048 486.089 146.31 484.297 148.182C482.5 150.055 480.447 151.307 478.137 151.94C480.645 152.36 482.537 153.203 483.815 154.463C485.093 155.728 485.858 157.558 486.102 159.959L487.429 172.837H481.085L479.834 160.652C479.637 158.548 478.875 157.042 477.547 156.136C476.219 155.235 473.855 154.78 470.466 154.78H459.547V172.837H453.203ZM459.547 149.477H469.137C472.774 149.477 475.553 148.772 477.471 147.361C479.389 145.952 480.348 143.963 480.348 141.396C480.348 138.788 479.389 136.788 477.471 135.396C475.553 134.009 472.774 133.316 469.137 133.316H459.547V149.477Z" fill="#F5F5F4" stroke="#F5F5F4" stroke-width="0.84" stroke-miterlimit="2"/>
  <path d="M513.075 167.785L503.778 135.146V172.837H497.434V128.009H507.023L515.875 159.642L524.726 128.009H534.317V172.837H527.973V135.146L518.679 167.785H513.075Z" fill="#F5F5F4" stroke="#F5F5F4" stroke-width="0.84" stroke-miterlimit="2"/>
  <path d="M545.356 172.837V167.534H558.413V133.316H545.356V128.009H577.813V133.316H564.756V167.534H577.813V172.837H545.356Z" fill="#F5F5F4" stroke="#F5F5F4" stroke-width="0.84" stroke-miterlimit="2"/>
  <path d="M590.324 172.837V128.009H599.325L617.91 166.713V128.009H624.257V172.837H615.258L596.668 134.136V172.837H590.324Z" fill="#F5F5F4" stroke="#F5F5F4" stroke-width="0.84" stroke-miterlimit="2"/>
  <path d="M652.847 173.846C649.16 173.846 645.878 172.972 643.001 171.226C640.124 169.481 637.85 166.871 636.18 163.4C634.505 159.923 633.672 155.623 633.672 150.487C633.672 145.647 634.446 141.481 635.995 137.986C637.543 134.49 639.768 131.789 642.668 129.875C645.571 127.959 649.061 127 653.145 127C656.341 127 659.182 127.613 661.662 128.83C664.148 130.051 666.223 131.747 667.898 133.912C669.569 136.083 670.776 138.576 671.513 141.396L664.872 141.774C664.035 138.996 662.649 136.722 660.703 134.957C658.764 133.188 656.242 132.302 653.145 132.302C649.061 132.302 645.904 133.882 643.667 137.038C641.43 140.194 640.308 144.68 640.308 150.487C640.308 156.252 641.452 160.707 643.738 163.839C646.026 166.976 649.259 168.544 653.441 168.544C657.179 168.544 660.141 167.311 662.329 164.849C664.517 162.387 665.684 159.223 665.831 155.35H653.293V150.171H671.735V172.837H665.831L665.684 166.648C664.454 168.837 662.82 170.586 660.781 171.89C658.736 173.195 656.093 173.846 652.847 173.846Z" fill="#F5F5F4" stroke="#F5F5F4" stroke-width="0.84" stroke-miterlimit="2"/>
  <path d="M685.426 156.926V151.94H711.98V156.926H685.426Z" fill="#F5F5F4" stroke="#F5F5F4" stroke-width="0.84" stroke-miterlimit="2"/>
  <path d="M729.656 172.837V128.009H736V167.534H762.114V172.837H729.656Z" fill="#F5F5F4" stroke="#F5F5F4" stroke-width="0.84" stroke-miterlimit="2"/>
  <path d="M784.182 128.009H796.054L811.268 172.837H794.486V166.612H800.895L790.118 138.556L779.341 166.612H785.75V172.837H768.968L784.182 128.009Z" fill="#F5F5F4"/>
  <path d="M820.337 172.837V128.009H835.085C840.839 128.009 845.179 129.103 848.106 131.292C851.032 133.481 852.496 136.471 852.496 140.259C852.496 142.699 851.635 144.772 849.915 146.479C848.191 148.182 845.881 149.265 842.978 149.728C846.67 150.151 849.547 151.296 851.609 153.169C853.675 155.041 854.71 157.43 854.71 160.337C854.71 164.209 853.135 167.261 849.988 169.492C846.84 171.724 842.487 172.837 836.931 172.837H820.337ZM826.679 147.393H835.382C839.02 147.393 841.677 146.783 843.347 145.562C845.021 144.341 845.855 142.618 845.855 140.387C845.855 138.113 845.021 136.368 843.347 135.146C841.677 133.924 839.02 133.316 835.382 133.316H826.679V147.393ZM826.679 167.534H837.003C840.789 167.534 843.581 166.903 845.378 165.639C847.173 164.378 848.07 162.61 848.07 160.337C848.07 157.936 847.133 156.063 845.265 154.718C843.396 153.369 840.645 152.698 837.003 152.698H826.679V167.534Z" fill="#F5F5F4" stroke="#F5F5F4" stroke-width="0.84" stroke-miterlimit="2"/>
  <path d="M882.341 173.846C878.654 173.846 875.385 173.195 872.53 171.89C869.68 170.586 867.393 168.787 865.674 166.49C863.949 164.198 862.941 161.534 862.648 158.506L869.285 158.128C869.829 161.45 871.243 164.02 873.53 165.828C875.813 167.639 878.803 168.544 882.49 168.544C886.127 168.544 888.919 167.944 890.863 166.745C892.804 165.546 893.777 163.851 893.777 161.662C893.777 160.232 893.394 158.999 892.634 157.97C891.872 156.937 890.445 155.97 888.356 155.065C886.267 154.159 883.178 153.223 879.099 152.255C875.457 151.369 872.521 150.391 870.284 149.319C868.047 148.244 866.42 146.941 865.412 145.404C864.403 143.866 863.9 141.986 863.9 139.754C863.9 137.227 864.602 135.007 866.002 133.092C867.407 131.177 869.41 129.685 872.017 128.61C874.625 127.536 877.722 127 881.31 127C884.899 127 887.974 127.621 890.53 128.864C893.088 130.105 895.119 131.797 896.618 133.944C898.117 136.094 899.063 138.533 899.458 141.269L892.818 141.647C892.377 138.911 891.206 136.672 889.315 134.923C887.419 133.176 884.705 132.302 881.161 132.302C877.915 132.302 875.336 132.968 873.418 134.294C871.5 135.62 870.541 137.354 870.541 139.501C870.541 140.892 870.896 142.036 871.612 142.942C872.323 143.847 873.588 144.648 875.407 145.342C877.226 146.036 879.784 146.783 883.079 147.581C887.361 148.594 890.764 149.728 893.295 150.992C895.83 152.255 897.649 153.751 898.756 155.473C899.864 157.2 900.417 159.304 900.417 161.789C900.417 164.144 899.652 166.24 898.13 168.07C896.604 169.901 894.488 171.322 891.787 172.332C889.081 173.341 885.934 173.846 882.341 173.846Z" fill="#F5F5F4" stroke="#F5F5F4" stroke-width="0.84" stroke-miterlimit="2"/>
  <path d="M157 68H133C128.582 68 125 71.5817 125 76V100C125 104.418 128.582 108 133 108H157C161.418 108 165 104.418 165 100V76C165 71.5817 161.418 68 157 68Z" fill="#F5F5F4"/>
  <path fill-rule="evenodd" clip-rule="evenodd" d="M182.383 68H280.617C282.045 68 283.414 68.8429 284.423 70.3431C285.433 71.8434 286 73.8783 286 76V100C286 102.122 285.433 104.157 284.423 105.657C283.414 107.157 282.045 108 280.617 108H182.383C180.955 108 179.586 107.157 178.577 105.657C177.567 104.157 177 102.122 177 100V76C177 73.8783 177.567 71.8434 178.577 70.3431C179.586 68.8429 180.955 68 182.383 68ZM271.852 81C270.747 81 269.852 81.8954 269.852 83V93C269.852 94.1046 270.747 95 271.852 95H277.272C278.376 95 279.272 94.1046 279.272 93V83C279.272 81.8954 278.376 81 277.272 81H271.852Z" fill="#F5F5F4"/>
  <path d="M157 124H133C128.582 124 125 127.582 125 132V156C125 160.418 128.582 164 133 164H157C161.418 164 165 160.418 165 156V132C165 127.582 161.418 124 157 124Z" fill="#A3A3A3"/>
  <path d="M280.334 124H182.666C179.537 124 177 127.582 177 132V156C177 160.418 179.537 164 182.666 164H280.334C283.463 164 286 160.418 286 156V132C286 127.582 283.463 124 280.334 124Z" fill="#A3A3A3"/>
  <path d="M157 180H133C128.582 180 125 183.582 125 188V212C125 216.418 128.582 220 133 220H157C161.418 220 165 216.418 165 212V188C165 183.582 161.418 180 157 180Z" fill="#595959"/>
  <path d="M230.189 180H182.811C179.602 180 177 183.582 177 188V212C177 216.418 179.602 220 182.811 220H230.189C233.398 220 236 216.418 236 212V188C236 183.582 233.398 180 230.189 180Z" fill="#595959"/>
</svg>
