<svg xmlns="http://www.w3.org/2000/svg" width="161" height="152" viewBox="125 68 161 152" fill="none" role="img" aria-labelledby="title desc">
  <title id="title">Farming Labs logo for dark backgrounds</title>
  <desc id="desc">The three-tone Farming Labs logo with compact separated caps and descending rails.</desc>
  <path d="M157 68H133C128.582 68 125 71.5817 125 76V100C125 104.418 128.582 108 133 108H157C161.418 108 165 104.418 165 100V76C165 71.5817 161.418 68 157 68Z" fill="#F5F5F4"/>
  <path fill-rule="evenodd" clip-rule="evenodd" d="M182.383 68H280.617C282.045 68 283.414 68.8429 284.423 70.3431C285.433 71.8434 286 73.8783 286 76V100C286 102.122 285.433 104.157 284.423 105.657C283.414 107.157 282.045 108 280.617 108H182.383C180.955 108 179.586 107.157 178.577 105.657C177.567 104.157 177 102.122 177 100V76C177 73.8783 177.567 71.8434 178.577 70.3431C179.586 68.8429 180.955 68 182.383 68ZM271.852 81C270.747 81 269.852 81.8954 269.852 83V93C269.852 94.1046 270.747 95 271.852 95H277.272C278.376 95 279.272 94.1046 279.272 93V83C279.272 81.8954 278.376 81 277.272 81H271.852Z" fill="#F5F5F4"/>
  <path d="M157 124H133C128.582 124 125 127.582 125 132V156C125 160.418 128.582 164 133 164H157C161.418 164 165 160.418 165 156V132C165 127.582 161.418 124 157 124Z" fill="#A3A3A3"/>
  <path d="M280.334 124H182.666C179.537 124 177 127.582 177 132V156C177 160.418 179.537 164 182.666 164H280.334C283.463 164 286 160.418 286 156V132C286 127.582 283.463 124 280.334 124Z" fill="#A3A3A3"/>
  <path d="M157 180H133C128.582 180 125 183.582 125 188V212C125 216.418 128.582 220 133 220H157C161.418 220 165 216.418 165 212V188C165 183.582 161.418 180 157 180Z" fill="#595959"/>
  <path d="M230.189 180H182.811C179.602 180 177 183.582 177 188V212C177 216.418 179.602 220 182.811 220H230.189C233.398 220 236 216.418 236 212V188C236 183.582 233.398 180 230.189 180Z" fill="#595959"/>
</svg>
